<svg width="765" height="816" viewBox="0 0 765 816" fill="none" xmlns="http://www.w3.org/2000/svg">
<path d="M293.329 40.7903V31.0051C293.329 23.7831 294.727 18.6576 297.523 15.6285C300.318 12.6006 303.813 11.0855 308.006 11.0855C312.432 11.0855 316.044 12.6006 318.839 15.6285C321.635 18.6576 323.033 23.7831 323.033 31.0051V97.4032C322.8 104.625 321.286 109.751 318.49 112.78C315.927 115.809 312.432 117.323 308.006 117.323C304.045 117.323 300.667 116.041 297.872 113.479C295.309 110.683 293.794 106.14 293.329 99.8498C291.931 83.3083 280.981 67.5828 260.479 52.672C240.211 37.7613 212.836 30.307 178.355 30.307C134.789 30.307 101.707 43.935 79.1089 71.1932C56.5094 98.4514 45.2101 129.67 45.2101 164.85C45.2101 202.825 57.6743 234.16 82.6027 258.855C107.531 283.55 139.798 295.897 179.404 295.897C202.236 295.897 225.417 291.704 248.948 283.318C272.711 274.931 294.145 261.417 313.248 242.779C318.14 238.121 322.451 235.791 326.178 235.791C330.139 235.791 333.4 237.188 335.963 239.984C338.759 242.547 340.156 245.808 340.156 249.769C340.156 259.786 328.391 272.484 304.861 287.861C266.886 312.789 224.602 325.253 178.006 325.253C130.712 325.253 91.8054 310.226 61.2858 280.172C30.9986 249.886 15.8555 211.56 15.8555 165.199C15.8555 117.905 31.3487 78.6486 62.3341 47.4298C93.5529 16.211 132.809 0.602173 180.103 0.602173C225.067 0.602173 262.809 13.9979 293.329 40.7903Z" fill="white"/>
<path d="M314.646 365.124V774.344H353.784C361.007 774.344 366.133 775.742 369.161 778.537C372.19 781.1 373.704 784.595 373.704 789.022C373.704 793.216 372.19 796.709 369.161 799.505C366.133 802.301 361.007 803.699 353.784 803.699H284.941V745.339C250.926 791.934 207.709 815.232 155.29 815.232C128.731 815.232 103.22 808.242 78.7578 794.264C54.5286 780.052 35.3083 759.899 21.0967 733.806C7.11853 707.714 0.128906 680.805 0.128906 653.081C0.128906 625.123 7.11853 598.215 21.0967 572.355C35.3083 546.262 54.5286 526.109 78.7578 511.898C103.22 497.686 128.848 490.581 155.639 490.581C206.894 490.581 249.995 513.878 284.941 560.474V394.828H245.801C238.579 394.828 233.453 393.431 230.424 390.635C227.396 387.838 225.881 384.228 225.881 379.801C225.881 375.607 227.396 372.113 230.424 369.317C233.453 366.521 238.579 365.124 245.801 365.124H314.646ZM284.941 653.081C284.941 615.805 272.36 584.353 247.199 558.726C222.037 533.099 192.1 520.285 157.387 520.285C122.441 520.285 92.3869 533.099 67.2262 558.726C42.0645 584.353 29.4836 615.805 29.4836 653.081C29.4836 690.124 42.0645 721.575 67.2262 747.435C92.3869 773.063 122.441 785.876 157.387 785.876C192.1 785.876 222.037 773.063 247.199 747.435C272.36 721.575 284.941 690.124 284.941 653.081Z" fill="white"/>
<path d="M759.09 659.371H459.95C465.075 697.346 480.918 727.982 507.477 751.28C534.269 774.344 567.352 785.876 606.724 785.876C628.624 785.876 651.572 782.265 675.569 775.043C699.565 767.82 719.135 758.269 734.278 746.387C738.705 742.892 742.548 741.145 745.81 741.145C749.538 741.145 752.8 742.66 755.595 745.688C758.391 748.484 759.789 751.863 759.789 755.823C759.789 759.784 757.925 763.628 754.198 767.355C743.014 779.004 723.096 789.953 694.439 800.204C666.016 810.222 636.778 815.232 606.724 815.232C556.402 815.232 514.35 798.807 480.569 765.957C447.02 732.875 430.246 692.92 430.246 646.091C430.246 603.457 445.972 566.88 477.423 536.36C509.107 505.84 548.247 490.581 594.843 490.581C642.835 490.581 682.325 506.306 713.311 537.758C744.296 568.977 759.556 609.514 759.09 659.371ZM729.385 629.666C723.562 597.284 708.185 570.957 683.257 550.688C658.562 530.42 629.09 520.285 594.843 520.285C560.596 520.285 531.124 530.303 506.428 550.338C481.733 570.375 466.357 596.817 460.3 629.666H729.385Z" fill="white"/>
<path d="M764.333 163.102C764.333 207.833 748.258 246.042 716.107 277.726C684.189 309.411 645.632 325.253 600.435 325.253C554.772 325.253 515.981 309.411 484.064 277.726C452.146 245.808 436.188 207.6 436.188 163.102C436.188 118.371 452.146 80.1626 484.064 48.478C515.981 16.5612 554.772 0.602173 600.435 0.602173C645.632 0.602173 684.189 16.4444 716.107 48.129C748.258 79.8135 764.333 118.138 764.333 163.102ZM734.628 163.102C734.628 126.292 721.465 94.9566 695.14 69.0968C669.046 43.2369 637.362 30.307 600.086 30.307C562.81 30.307 531.009 43.3525 504.682 69.4458C478.589 95.3068 465.542 126.526 465.542 163.102C465.542 199.446 478.589 230.665 504.682 256.758C531.009 282.852 562.81 295.897 600.086 295.897C637.362 295.897 669.046 282.967 695.14 257.108C721.465 231.014 734.628 199.679 734.628 163.102Z" fill="white"/>
</svg>
